<svg width="25" height="25" viewBox="0 0 25 25" fill="none" xmlns="http://www.w3.org/2000/svg">
<path d="M12.6622 15.5227H14.1729L10.8658 6.36304H9.336L6.02887 15.5227H7.48883L8.33307 13.0916H11.8243L12.6622 15.5227ZM10.0279 8.02612H10.1358L11.4625 11.8982H8.69489L10.0279 8.02612Z" fill="#101112"/>
<path d="M17.7974 14.488C17.0547 14.488 16.5152 14.1262 16.5152 13.5042C16.5152 12.8948 16.9468 12.571 17.899 12.5076L19.5875 12.3997V12.9773C19.5875 13.8342 18.8257 14.488 17.7974 14.488ZM17.4483 15.637C18.356 15.637 19.1114 15.2434 19.524 14.5515H19.6319V15.5227H20.9459V10.8C20.9459 9.34009 19.9683 8.47681 18.2354 8.47681C16.6675 8.47681 15.5504 9.23853 15.4107 10.4255H16.731C16.8834 9.93677 17.4102 9.65747 18.1719 9.65747C19.105 9.65747 19.5875 10.0701 19.5875 10.8V11.3967L17.7149 11.5046C16.0709 11.6062 15.1441 12.3235 15.1441 13.5676C15.1441 14.8308 16.1153 15.637 17.4483 15.637Z" fill="#101112"/>
<path fill-rule="evenodd" clip-rule="evenodd" d="M20.9459 18.637L6.02887 18.637V17.437L20.9459 17.437V18.637Z" fill="#101112"/>
</svg>
