<svg xmlns="http://www.w3.org/2000/svg" width="25" height="25" viewBox="0 0 25 25"><path fill="#0d0e12" d="M8.5 9.5v-.6l-.6.6zm8 0h.6l-.6-.6zm-8 .6h1V8.9h-1zm1 0h6V8.9h-6zm6 0h1V8.9h-1zm.4-.6v4h1.2v-4zm0 4-.524 1.98-1.144.983-1.206.383-.397.048-.104.005-.023.001h-.004.001l.001.6v.6h.021l.044-.001.15-.008.509-.062 1.544-.492 1.606-1.392.726-2.645zm-3.4 4v-.6h.001-.026l-.104-.006-.397-.048-1.206-.383-1.144-.983L9.1 13.5H7.9l.726 2.645 1.606 1.392 1.544.492.51.062.15.008h.043l.013.001h.007zm-3.4-4v-4H7.9v4zm.4-4h.6v.003-.017l.004-.072.035-.284.273-.862.686-.8L12.5 7.1V5.9l-2.067.57-1.095 1.262-.383 1.2-.048.396-.006.118v.036l-.001.011V9.5zm3-2.4 1.402.368.686.8.273.862.035.284.004.072v.017V9.5l.6-.001h.6v-.018l-.001-.036-.006-.118-.048-.395-.383-1.201-1.095-1.262L12.5 5.9zm-.6 2.4v8h1.2v-8zm-3.4.4-1.826-.824-.487-.596-.12-.192-.026-.048-.005-.01v.001L5.5 8.5l-.536.269v.001l.002.003.004.008.012.024.044.079.162.261.638.78L8.5 11.1zm8 1.2 2.674-1.176.638-.779.162-.261.044-.08.012-.023.004-.008.002-.003v-.001L19.5 8.5l-.536-.269V8.23l-.005.01-.027.048-.119.192-.487.596L16.5 9.9zm0 2H20v-1.2h-3.5zm0 2 1.826.824.487.596.12.192.026.048.005.01v-.001l.536-.269.536-.269v-.001l-.002-.003-.004-.008-.012-.024-.044-.079-.162-.261-.638-.78L16.5 13.9zm-8-1.2-2.674 1.176-.638.779-.162.261-.044.08-.012.023-.004.008-.002.003v.001l.536.269.536.269v.001l.005-.01.027-.048.119-.192.487-.596L8.5 15.1zm0-2H5v1.2h3.5z"/></svg>