<svg xmlns="http://www.w3.org/2000/svg" width="25" height="25" viewBox="0 0 25 25"><path fill="none" stroke="#0d0e12" stroke-linejoin="round" stroke-width="1.2" d="m14.067 6.194-.348-.869L12.5 4.5l-1.219.825-.348.87-.736.745-1.048-.007-.86-.368-1.446.278-.278 1.446.368.86.007 1.048-.746.736-.869.348L4.5 12.5l.825 1.219.87.348.745.736-.007 1.048-.368.86.278 1.446 1.446.278.86-.368 1.048-.007.736.746.348.869 1.219.825 1.219-.825.348-.87.736-.745 1.048.007.86.368 1.446-.278.278-1.446-.368-.86-.007-1.048.746-.736.869-.348.825-1.219-.825-1.219-.87-.348-.745-.736.007-1.048.368-.86-.278-1.446-1.446-.278-.86.368-1.048.007zM16 12.5l-1.025 2.475L12.5 16l-2.475-1.025L9 12.5l1.025-2.475L12.5 9l2.475 1.025z"/></svg>