<svg xmlns="http://www.w3.org/2000/svg" width="25" height="25" viewBox="0 0 25 25"><path fill="none" stroke="#0d0e12" stroke-linejoin="round" stroke-width="1.2" d="m9.439 5.109 1.722 4.157m2.678 6.468 1.722 4.157m.173-8.73 4.157-1.722m-10.625 4.4L5.11 15.561m.205-6.038 3.92 1.624m6.532 2.706 3.92 1.624m-5.833-6.243 1.624-3.92M9.523 19.686l1.624-3.92M20.5 12.5l-.629 3.114-1.714 2.543-2.543 1.714-3.114.629-3.114-.629-2.543-1.714-1.714-2.543L4.5 12.5l.629-3.114 1.714-2.543L9.386 5.13 12.5 4.5l3.114.629 2.543 1.714 1.714 2.543zm-4.5 0-1.025 2.475L12.5 16l-2.475-1.025L9 12.5l1.025-2.475L12.5 9l2.475 1.025z"/></svg>