<svg xmlns="http://www.w3.org/2000/svg" width="25" height="25" viewBox="0 0 25 25"><g fill="none"><path fill="#0d0e12" d="m16.5 6.25.75-.75-.75-.75-.75.75zm3 10 .75-.75-.75-.75-.75.75z"/><path stroke="#0d0e12" stroke-linejoin="round" stroke-width="1.2" d="m13 4-.64 1.11.39.64.39.64-.64 1.11M21 12l-1.11.64-.64-.39-.64-.39-1.11.64m-1.434 3.99-1.996-.282-3.105-2.394-2.395-3.106-.282-1.996m7.778 7.778-.282-1.996-2.395-3.105-3.105-2.395-1.996-.282m7.778 7.778-.7.462-8.373 3.344-2.09-.422-.42-2.089 3.343-8.373.462-.7M20 5l-.365 2.616-.963 1.373-2.922.674-2.922.675-.963 1.373-.365 2.616"/></g></svg>