<svg xmlns="http://www.w3.org/2000/svg" width="25" height="25" viewBox="0 0 25 25"><g fill="none"><path fill="#0d0e12" d="m12.713 13.801.006-.031.166-1.801-.735-.674-.745.478.225 2.2-1.142 2.4-1.679 1.532.079.42.368.335.24.044.769-.34 1.109-1.432.392-.131 1.806-.516 1.832.553.743-.457-.138-.884-2.127-.227zm-2.448 3.39-.672.774zm1.954-5.255.012 1.102-.06-1.147zm-.035 2.689.872 1.03-1.314.452-.275.111zm3.472 1.461-.013.02-.993-.185z"/><path stroke="#0d0e12" stroke-linejoin="round" stroke-width="1.2" d="M11.5 4.5v5h-5m5-5h7v16h-12v-11z"/></g></svg>