<svg xmlns="http://www.w3.org/2000/svg" width="25" height="25" viewBox="0 0 25 25"><path fill="#0d0e12" d="m9.5 8 1.06-.44L11 6.5l-.44-1.06L9.5 5l-1.06.44L8 6.5l.44 1.06zm0 6 1.06-.44.44-1.06-.44-1.06L9.5 11l-1.06.44L8 12.5l.44 1.06zm1.5 4.5-.44 1.06L9.5 20l-1.06-.44L8 18.5l.44-1.06L9.5 17l1.06.44zM15.5 8l1.06-.44L17 6.5l-.44-1.06L15.5 5l-1.06.44L14 6.5l.44 1.06zm1.5 4.5-.44 1.06-1.06.44-1.06-.44L14 12.5l.44-1.06L15.5 11l1.06.44zM15.5 20l1.06-.44.44-1.06-.44-1.06L15.5 17l-1.06.44L14 18.5l.44 1.06z"/></svg>