<svg xmlns="http://www.w3.org/2000/svg" width="25" height="25" viewBox="0 0 25 25"><path fill="none" stroke="#0d0e12" stroke-linejoin="round" stroke-width="1.2" d="m20.5 12.5-.629 3.114-1.714 2.543-2.543 1.714-3.114.629-3.114-.629-2.543-1.714-1.714-2.543L4.5 12.5l.629-3.114 1.714-2.543L9.386 5.13 12.5 4.5l3.114.629 2.543 1.714 1.714 2.543zm0 0h-16m8 8-.469-.547L11 18.375l-1.031-2.516L9.5 12.5l.469-3.36L11 6.626l1.031-1.578.469-.547.469.547L14 6.625l1.031 2.516.469 3.36-.469 3.358L14 18.375l-1.031 1.578z"/></svg>