<svg xmlns="http://www.w3.org/2000/svg" width="25" height="25" viewBox="0 0 25 25"><path fill="#0d0e12" fill-rule="evenodd" d="m12.507 4-3.314.673L6.49 6.508 4.668 9.232 4 12.57l1.64 5.06 4.177 3.07.577-.41-.014-1.59-2.317-.32-.542-.702-.944-1.248-.262-.46.319-.065 1.31.88 1.34.929 1.138-.22.536-1.15-2.645-.954-.889-1.252-.34-2.022.874-2.298-.164-.774.248-1.497.562.025 1.776.855 2.127-.284 2.127.284 1.776-.855.562-.025.248 1.497-.164.774.873 2.298-.34 2.02-.89 1.249-2.657.96.578 1.589-.014 2.355.577.412 4.176-3.07L21 12.57l-.662-3.34-1.82-2.723-2.703-1.835z"/></svg>