<svg xmlns="http://www.w3.org/2000/svg" width="25" height="25" viewBox="0 0 25 25"><path fill="#0d0e12" fill-rule="evenodd" d="M20 5H5v15h15zm-7.475 11.157-.537 1.472-1.509.525-1.462-.508-.559-1.352v-.033h1.216v.025l.789.784.809-.921V12.01h1.253zm5.764.058-.647 1.415-1.768.524-1.714-.476-.693-1.272-.005-.066h1.208l.004.041 1.233.752 1.129-.78v-.005l-1.038-.768-.63-.128-1.358-.626-.423-1.118v-.004l.643-1.34 1.64-.507 1.644.495.655 1.244.004.054h-1.179l-.008-.05-1.116-.726-1.03.735v.004l.996.768.635.128 1.384.6.434 1.102z"/></svg>