<svg xmlns="http://www.w3.org/2000/svg" width="25" height="25" viewBox="0 0 25 25"><g fill="none"><path fill="#0d0e12" d="M17.816 14.412 19.1 10.5V10h-1.2v.5l-.944 3.052zm-3.599 1.21.928.927-2.045.524V19.9H17v1.2H8v-1.2h3.9v-2.827l-4.261-2.109L5.9 10.5V10h1.2v.5l1.582 3.818L12.5 15.9zm1.432-3.377L16.1 10.5v-3l-1.054-2.546L12.5 3.9l-1.913.55-1.303 1.43.92.92.855-1.22L12.5 5.1l1.697.703L14.9 7.5v3l-.152.844zM8.9 10.305l3.79 3.79-.19.005-2.546-1.054L8.9 10.5z"/><path stroke="#0d0e12" stroke-linejoin="round" stroke-width="1.2" d="M19 18 6 5"/></g></svg>