<svg xmlns="http://www.w3.org/2000/svg" width="25" height="25" viewBox="0 0 25 25"><path fill="#0d0e12" fill-rule="evenodd" d="M21.017 17.634H3.837v-1.2h17.18zM7.098 13.397V7.508H5.741L3.836 8.782v1.309l1.817-1.206h.088v4.512h-1.9v1.157H8.9v-1.157zm2.72-3.765v.03h1.289v-.035l1.167-1.133 1.128 1.011-1.211 1.807-2.295 2.27v.972h4.966v-1.167H11.78v-.088l1.377-1.313 1.245-1.426.351-1.148-.672-1.48-1.764-.566-1.805.628zm7.851 1.831h.84l1.333 1.035-1.318 1.016-1.314-.982h-1.284l.766 1.576 1.87.588 1.92-.584.737-1.521-.402-1.143-1.116-.527v-.088l1.245-1.596-.665-1.353-1.738-.518-1.78.571-.7 1.563h1.235L18.5 8.485l1.158.957-1.162.976h-.826z"/></svg>