<svg xmlns="http://www.w3.org/2000/svg" width="25" height="25" viewBox="0 0 25 25"><path fill="none" stroke="#0d0e12" stroke-linejoin="round" stroke-width="1.2" d="m15.996 11.5-2.629-1.47L10.496 9l-3.119 1.538-1.232 1.317L6 13l.935.438 1.184-.478 2.377-.96 1.756.978L13 14.5l-.748 1.54-1.756.46-3-2.5-1.645.268L5.5 15.5 8.496 19l2.592 1.534L14.996 20l2.877-2.844L18.5 13l-.772-1.839-1.829-2.648-2.154-2.53-1.75-1.483-1.248.25.249 1.75L14 10.375M15.5 8l-.112-.437L14.996 6l.375-1.875 1.125.375.55 1.569.609 2.373.84 4.558"/></svg>