<svg xmlns="http://www.w3.org/2000/svg" width="25" height="25" viewBox="0 0 25 25"><path fill="none" stroke="#0d0e12" stroke-linecap="round" stroke-linejoin="round" stroke-width="1.2" d="M11 3.5V5m0 0v1.5M11 5h1.5M11 5H9.5m0 10 1.524-.274L13.5 13.5l1.226-2.476L15 9.5l.274 1.524L16.5 13.5l2.476 1.226L20.5 15l-1.524.274L16.5 16.5l-1.226 2.476L15 20.5l-.274-1.524L13.5 16.5l-2.476-1.226zm-5-5 .684-.134L6.3 9.3l.566-1.116L7 7.5l.134.684L7.7 9.3l1.116.566L9.5 10l-.684.134L7.7 10.7l-.566 1.116L7 12.5l-.134-.684L6.3 10.7l-1.116-.566z"/></svg>