<svg xmlns="http://www.w3.org/2000/svg" width="25" height="25" viewBox="0 0 25 25"><path fill="#0d0e12" fill-rule="evenodd" d="M9.4 5.4H4v1.2h9.219l-.216.622-1.427 2.354L10 11.15l-.576-.575-1.462-1.93-.309-.625-.067-.166-.015-.038-.002-.008L7 8l-.57.19.001.001.001.003.002.005.007.019.022.061.087.215.363.735 1.663 2.195.575.576-4.571 4.572-.003.003h-.001l.848.85.003-.003 4.61-4.61 2.579 2.149.768-.922-2.495-2.08 1.535-1.535 1.699-2.771.347-1.053H16V5.4h-5.4V4H9.4zm8.04 4.6 4.113 9.767h-1.302L19.128 17.1h-4.256l-1.123 2.667h-1.302L16.56 10zm-2.063 5.9h3.246L17 12.046z"/></svg>