<svg xmlns="http://www.w3.org/2000/svg" width="25" height="25" viewBox="0 0 25 25"><path fill="#0d0e12" d="m17.04 5.146.425.425.155-.58-.425-.424zm-2.639 2.64-.424-.425-.159.567zm-1.523-1.524-.424-.424zm-1.047 4.395.424.424.146-.611zm-6.192 6.192-.424-.425zm0 3.086.425-.424zm3.087 0 .424.424zm6.392-6.392.112-.59-.536.165zm3.854-1.187-.424-.424zm1.116-4.163.58-.155-.425-.424-.58.155zm-2.64 2.64-.142.582.567-.158zm-2.448-.6-.583.143.44.44zm1.616-5.511-2.639 2.64.849.848 2.639-2.64zm-3.314 1.964 1.691-.968 1.893.008.31-1.16-2.503-.01-2.24 1.282zm-.901 3.784-.092-1.992.993-1.792-.849-.848L11.14 8.21l.12 2.633zm-.994-.237-6.192 6.191.849.849 6.191-6.192zm-6.192 6.191L4.4 18.392l.815 1.967.849-.848v-2.238zm0 3.935 1.968.815 1.967-.815-.848-.848H6.064zm3.935 0 6.393-6.392-.849-.849-6.392 6.393zm9.397-8.427-3.317 1.021-.223 1.179 2.324-.119 2.065-1.233zm.961-3.584.008 1.893-.968 1.69.848.85 1.282-2.24-.01-2.503zm-1.635 2.909 2.639-2.64-.849-.848-2.639 2.64zm-3.016-.44 2.449.598.285-1.165-2.448-.599zM13.82 7.928l.598 2.448 1.166-.285-.599-2.448z"/></svg>